<?xml version="1.0" standalone="no"?>
<!DOCTYPE svg PUBLIC "-//W3C//DTD SVG 20010904//EN"
 "http://www.w3.org/TR/2001/REC-SVG-20010904/DTD/svg10.dtd">
<svg version="1.0" xmlns="http://www.w3.org/2000/svg"
 width="900.000000pt" height="714.000000pt" viewBox="0 0 900.000000 714.000000"
 preserveAspectRatio="xMidYMid meet">
<metadata>
Created by potrace 1.10, written by Peter Selinger 2001-2011
</metadata>
<g transform="translate(0.000000,714.000000) scale(0.100000,-0.100000)"
fill="#000470" stroke="none">
<path d="M3830 7119 c0 -12 -8 -28 -17 -35 -15 -10 -18 -30 -19 -131 0 -99 3
-120 17 -130 10 -8 15 -21 12 -35 -2 -13 1 -43 8 -68 6 -25 15 -85 18 -135 l6
-90 33 -3 c40 -4 51 18 28 53 -9 14 -16 46 -16 77 -1 29 -7 71 -15 93 -17 48
-19 109 -4 137 9 16 6 24 -12 44 -17 18 -25 42 -31 97 -8 79 -1 98 27 67 26
-28 55 -26 55 4 0 13 -7 29 -15 36 -8 7 -15 19 -15 26 0 9 -11 14 -30 14 -24
0 -30 -4 -30 -21z"/>
<path d="M5109 7103 c-18 -4 -29 -32 -29 -70 0 -13 -4 -23 -10 -23 -5 0 -10
-14 -10 -31 0 -33 22 -37 28 -5 6 30 77 98 98 94 15 -3 19 -11 17 -43 -1 -22
-7 -56 -12 -75 -10 -37 -26 -141 -42 -275 -9 -77 -32 -156 -52 -182 -10 -14
-1 -19 53 -26 58 -7 76 8 45 40 -16 15 -15 46 5 123 9 38 23 130 41 275 6 50
18 104 26 122 17 36 11 53 -18 53 -11 0 -28 4 -37 9 -22 11 -83 20 -103 14z"/>
<path d="M5302 7067 c-9 -10 -6 -17 8 -30 11 -9 20 -25 20 -35 0 -22 43 -76
53 -66 10 10 -5 128 -17 136 -18 12 -53 9 -64 -5z"/>
<path d="M4600 6907 c-34 -32 -56 -80 -69 -154 -19 -104 24 -233 79 -233 22 0
90 76 90 102 0 24 -12 23 -35 -2 -43 -48 -88 -1 -83 88 l3 57 60 0 60 0 3 53
c2 43 -1 58 -20 82 -28 35 -55 37 -88 7z m44 -23 c21 -8 22 -80 2 -87 -27 -11
-56 4 -56 29 0 13 4 24 9 24 5 0 13 9 16 20 7 22 7 22 29 14z"/>
<path d="M4064 6907 c-6 -7 -23 -22 -38 -34 -22 -19 -26 -31 -26 -73 0 -37 4
-52 16 -57 22 -8 34 14 34 64 0 25 7 51 17 62 16 20 17 20 35 -10 32 -53 21
-96 -39 -141 -53 -40 -69 -138 -30 -183 19 -23 26 -25 50 -16 29 11 37 41 12
41 -21 0 -46 60 -34 82 5 9 9 25 9 35 1 22 38 69 47 59 13 -13 15 -123 3 -146
-11 -21 -10 -26 15 -47 15 -13 35 -23 44 -21 22 4 26 36 8 56 -12 13 -16 50
-19 157 -3 129 -5 142 -26 163 -24 24 -61 28 -78 9z"/>
<path d="M4321 6894 c-20 -25 -22 -26 -39 -10 -17 15 -20 14 -40 -7 -26 -28
-27 -34 -7 -53 15 -15 23 -136 17 -252 -2 -47 10 -59 54 -48 20 5 24 11 18 24
-7 16 -16 74 -30 193 -9 74 10 121 45 117 20 -2 26 -12 37 -53 17 -64 18 -237
2 -253 -11 -11 -8 -13 40 -28 31 -9 60 34 33 50 -4 3 -11 56 -14 118 -5 106
-23 184 -49 215 -17 21 -45 15 -67 -13z"/>
<path d="M2982 6903 c-34 -7 -38 -29 -11 -58 39 -40 59 -33 59 20 0 46 -1 47
-48 38z"/>
<path d="M3667 6843 c-2 -10 3 -31 11 -47 14 -28 15 -29 28 -11 15 21 17 35 8
59 -8 22 -42 20 -47 -1z"/>
<path d="M2743 6812 c-31 -15 -45 -42 -22 -42 14 0 51 -33 188 -170 119 -118
210 -215 247 -263 41 -52 67 -25 36 37 -11 23 -30 62 -42 89 -12 26 -28 47
-35 47 -8 0 -31 19 -52 42 -21 23 -71 77 -112 119 -40 43 -90 96 -111 119 -40
43 -48 45 -97 22z"/>
<path d="M3558 6814 c-31 -16 -37 -39 -13 -48 8 -3 15 -14 15 -24 0 -11 11
-31 24 -45 26 -28 86 -142 86 -163 0 -16 44 -64 59 -64 14 0 15 27 1 35 -5 3
-10 23 -10 44 0 35 -17 67 -57 109 -7 7 -13 22 -13 33 0 10 -4 19 -10 19 -5 0
-13 12 -16 28 -4 15 -11 32 -16 39 -5 7 -5 14 2 18 16 10 12 35 -7 35 -10 -1
-30 -8 -45 -16z"/>
<path d="M3020 6777 c0 -22 6 -37 16 -41 12 -5 15 1 12 31 -4 48 -28 57 -28
10z"/>
<path d="M5412 6783 c-40 -49 -62 -87 -62 -108 0 -12 -5 -26 -11 -32 -16 -16
-23 -133 -10 -163 26 -60 45 -80 77 -80 66 0 144 155 144 284 0 52 -4 67 -26
94 -35 42 -79 44 -112 5z m76 -22 c27 -16 0 -193 -40 -267 -26 -48 -43 -58
-63 -38 -13 13 -16 29 -12 68 8 93 53 229 79 239 19 8 22 8 36 -2z"/>
<path d="M3442 6782 c-39 -4 -52 -28 -26 -47 17 -11 110 -186 143 -268 18 -46
36 -27 35 37 -1 47 -6 62 -27 84 -32 33 -80 127 -87 167 -5 27 -8 30 -38 27z"/>
<path d="M3240 6723 c-20 -25 -22 -37 -18 -118 4 -78 9 -98 37 -150 34 -62 75
-104 102 -105 26 0 56 42 64 89 l7 44 -30 -22 c-17 -11 -39 -21 -49 -21 -21 0
-63 50 -63 74 0 8 -4 17 -10 21 -5 3 -9 18 -9 33 0 15 -3 51 -7 80 -6 51 -6
52 19 52 19 0 28 -7 36 -32 11 -29 10 -35 -9 -47 -11 -7 -20 -17 -20 -22 0
-16 55 -9 80 10 21 17 23 22 13 44 -20 44 -74 97 -98 97 -14 0 -33 -12 -45
-27z"/>
<path d="M5657 6743 c-4 -3 -7 -46 -7 -95 0 -49 -4 -98 -10 -108 -5 -10 -11
-51 -12 -92 -2 -59 0 -73 12 -73 8 0 19 14 25 30 5 17 14 33 19 37 5 3 10 56
11 118 1 66 5 114 12 118 19 12 26 54 12 63 -17 10 -53 12 -62 2z"/>
<path d="M3056 6723 c-13 -13 -6 -63 9 -63 10 0 15 10 15 29 0 30 -12 46 -24
34z"/>
<path d="M5780 6672 c0 -21 -3 -42 -7 -46 -4 -4 -8 -39 -8 -79 -1 -40 -7 -100
-15 -135 -12 -56 -12 -64 3 -79 15 -15 18 -12 42 41 15 32 26 65 25 74 -5 74
4 170 18 194 15 25 15 29 -3 48 -10 11 -26 20 -37 20 -14 0 -18 -8 -18 -38z"/>
<path d="M5895 6641 c-7 -23 3 -51 19 -51 18 0 48 40 42 56 -8 21 -54 18 -61
-5z"/>
<path d="M3086 6624 c-7 -18 0 -34 15 -34 12 0 12 37 0 44 -5 3 -12 -1 -15
-10z"/>
<path d="M2816 6603 c-12 -13 -6 -53 9 -53 9 0 15 9 15 24 0 26 -12 40 -24 29z"/>
<path d="M6007 6589 c-12 -7 -15 -15 -8 -26 8 -16 1 -43 -34 -118 -26 -58 -45
-103 -45 -109 0 -4 -11 -19 -25 -33 -30 -33 -17 -56 29 -51 27 3 31 8 37 41 3
21 11 48 17 60 6 12 20 45 32 72 34 80 43 96 62 106 23 12 23 24 -2 49 -22 22
-37 24 -63 9z"/>
<path d="M6593 6593 c-7 -2 -13 -16 -13 -30 0 -21 -52 -135 -70 -153 -3 -3
-16 -27 -30 -55 -14 -27 -31 -56 -37 -63 -7 -7 -13 -17 -13 -22 0 -16 -91
-160 -101 -160 -17 0 -9 -49 10 -60 30 -16 40 -12 47 18 7 33 36 96 47 100 4
2 7 9 7 15 0 7 18 40 41 75 42 65 72 79 99 47 15 -18 -23 -100 -101 -218 -41
-63 -48 -81 -39 -92 15 -18 60 -20 61 -2 2 29 8 46 31 83 14 21 35 62 49 89
13 28 30 56 37 64 8 8 12 33 10 65 l-3 51 -42 3 c-24 2 -43 7 -43 12 0 6 14
32 30 58 17 27 30 54 30 61 0 6 3 11 8 11 13 0 55 87 48 99 -7 11 -41 14 -63
4z"/>
<path d="M6109 6568 c-9 -17 -9 -24 5 -33 18 -13 22 -50 6 -60 -5 -3 -10 -13
-10 -21 0 -14 -12 -45 -56 -141 -8 -17 -14 -35 -14 -41 0 -5 -7 -12 -15 -16
-24 -9 -18 -45 10 -58 30 -14 59 5 50 33 -5 16 3 40 51 146 8 17 14 37 14 45
0 7 7 22 15 32 8 11 15 39 15 63 0 37 -4 44 -30 58 -28 14 -30 14 -41 -7z"/>
<path d="M2837 6509 c-7 -27 1 -49 19 -49 9 0 14 12 14 35 0 39 -24 49 -33 14z"/>
<path d="M6301 6483 c-36 -26 -71 -88 -71 -127 0 -20 7 -51 16 -70 20 -40 13
-89 -17 -125 -19 -23 -20 -23 -35 -5 -10 13 -13 32 -9 62 3 27 1 41 -5 37 -6
-3 -10 -13 -10 -21 0 -8 -7 -14 -15 -14 -8 0 -18 -12 -21 -26 -5 -20 0 -31 22
-53 44 -42 57 -43 96 -8 65 60 85 139 52 206 -18 37 -14 80 12 110 24 28 34
18 34 -35 0 -32 4 -44 15 -44 8 0 15 6 15 14 0 7 6 19 14 25 12 10 12 16 1 37
-14 27 -44 53 -60 53 -5 0 -21 -7 -34 -16z"/>
<path d="M2867 6443 c-13 -12 -7 -41 11 -59 9 -10 18 -29 19 -43 1 -14 4 -46
6 -71 3 -43 5 -45 36 -48 18 -2 39 2 47 8 12 10 10 16 -9 41 -12 15 -28 28
-34 28 -8 1 -13 15 -13 35 0 22 -6 36 -16 40 -11 4 -14 13 -11 27 10 37 -14
64 -36 42z"/>
<path d="M2349 6357 c-21 -11 -24 -20 -27 -74 -2 -50 2 -73 22 -115 30 -63
111 -158 135 -158 9 0 22 -5 27 -10 7 -7 21 -5 42 6 31 15 32 17 32 84 0 82
-30 147 -100 221 -49 51 -90 66 -131 46z m149 -157 c36 -67 46 -109 37 -152
l-7 -31 -54 57 c-56 61 -114 166 -114 207 0 13 3 34 6 46 6 20 9 19 54 -25 26
-26 61 -72 78 -102z"/>
<path d="M2198 6263 c-13 -3 -18 -15 -18 -39 0 -31 -2 -34 -24 -28 -19 4 -27
0 -36 -17 -11 -20 -9 -25 14 -42 28 -20 136 -176 136 -196 0 -6 4 -11 9 -11 5
0 11 -13 15 -30 3 -18 12 -30 21 -30 8 0 15 4 15 9 0 5 9 11 20 14 19 5 29 37
12 37 -15 0 -47 34 -72 75 -13 22 -27 42 -30 45 -3 3 -16 21 -28 41 -27 45
-29 79 -4 79 21 0 42 18 42 37 0 14 -40 64 -49 62 -3 -1 -14 -3 -23 -6z"/>
<path d="M6696 6178 c-72 -73 -103 -130 -112 -208 -5 -45 -3 -58 10 -69 28
-23 116 -13 116 14 0 7 7 15 15 19 8 3 15 10 15 16 0 5 -7 10 -15 10 -8 0 -15
-4 -15 -10 0 -14 -33 -13 -48 2 -34 34 6 158 50 158 16 0 19 5 15 21 -4 15 2
28 21 45 30 26 40 28 61 15 24 -15 -13 -81 -44 -81 -32 0 -31 -20 1 -43 35
-26 57 -18 69 25 5 20 13 40 18 44 12 12 8 41 -10 73 -15 25 -25 31 -52 31
-28 0 -44 -10 -95 -62z"/>
<path d="M1953 6113 c-7 -2 -13 -12 -13 -21 0 -9 -7 -25 -14 -35 -16 -20 -9
-50 28 -126 28 -58 127 -161 155 -161 11 0 21 -4 21 -10 0 -16 37 -12 44 5 3
8 12 15 20 15 57 0 9 166 -72 253 -61 65 -128 97 -169 80z m83 -65 c33 -28 95
-111 117 -157 17 -34 24 -111 10 -111 -5 0 -29 18 -55 40 -71 62 -148 184
-148 236 0 22 47 16 76 -8z"/>
<path d="M1552 6078 c-13 -13 -16 -57 -4 -74 4 -6 16 -14 27 -18 11 -3 30 -21
42 -38 13 -18 39 -50 58 -71 19 -21 61 -71 92 -110 32 -40 70 -85 85 -102 15
-16 28 -33 28 -37 0 -4 11 -15 25 -24 23 -15 27 -15 58 5 55 34 73 59 59 81
-7 11 -12 28 -12 38 0 11 -9 29 -20 42 -11 13 -20 26 -20 30 0 17 -112 122
-144 135 -49 21 -61 19 -76 -10 -17 -31 -33 -32 -53 -2 -8 12 -29 38 -46 57
-17 19 -31 38 -31 41 0 4 -12 21 -28 38 -22 25 -30 29 -40 19z m295 -220 c45
-33 123 -130 123 -154 0 -6 7 -14 15 -18 19 -7 20 -26 1 -26 -8 0 -17 -7 -20
-16 -5 -12 -21 -1 -69 48 -73 73 -137 150 -137 166 0 9 26 31 38 32 2 0 24
-15 49 -32z"/>
<path d="M6915 6063 c-8 -35 -106 -168 -154 -210 l-36 -33 29 -25 c22 -19 32
-22 43 -14 7 6 13 18 13 26 0 23 139 203 163 212 31 11 57 2 57 -21 0 -27 -88
-152 -162 -230 -16 -16 -28 -32 -28 -36 0 -10 68 -41 75 -34 3 3 5 15 5 27 0
13 26 58 58 101 90 122 104 148 100 191 -3 38 -3 38 -44 35 -34 -2 -43 1 -47
18 -4 14 -14 20 -35 20 -24 0 -31 -5 -37 -27z"/>
<path d="M7395 6013 c-7 -30 -94 -143 -110 -143 -5 0 -23 9 -40 20 -43 28 -61
25 -117 -20 -122 -97 -200 -270 -122 -270 13 0 28 -9 34 -19 20 -38 41 -53 56
-40 8 6 14 20 14 29 0 10 19 38 41 61 23 24 67 75 98 114 30 38 69 84 86 101
17 16 48 52 70 80 22 27 46 53 53 57 18 12 15 35 -7 47 -32 17 -48 12 -56 -17z
m-149 -186 c-3 -12 -18 -36 -33 -53 -16 -17 -50 -57 -77 -88 -33 -39 -55 -56
-72 -56 -20 0 -24 5 -24 30 0 57 117 198 174 210 34 7 42 -5 32 -43z"/>
<path d="M1427 5963 c-15 -15 -7 -62 12 -68 20 -6 176 -169 299 -311 28 -33
52 -70 52 -82 0 -12 2 -22 3 -22 15 0 67 34 67 43 0 7 -19 30 -43 52 -24 22
-74 76 -112 119 -39 44 -83 94 -100 111 -16 17 -58 61 -91 98 -60 65 -73 74
-87 60z"/>
<path d="M7757 5723 c-4 -3 -7 -16 -7 -27 0 -17 -132 -197 -158 -215 -4 -3
-30 -35 -57 -71 -26 -36 -70 -86 -97 -111 -26 -26 -48 -52 -48 -58 0 -17 45
-13 68 7 48 39 67 52 78 52 6 0 19 20 30 45 10 25 21 45 24 45 4 0 21 19 38
43 17 23 45 58 62 77 17 19 47 54 67 78 22 26 44 42 58 42 35 0 36 10 2 56
-31 42 -46 51 -60 37z"/>
<path d="M1488 5703 c0 -10 0 -31 1 -46 2 -27 1 -29 -27 -22 -26 5 -30 3 -36
-20 -8 -31 -1 -45 23 -45 16 0 129 -108 205 -195 l26 -30 25 30 c31 37 31 45
2 45 -27 0 -187 156 -187 182 0 10 9 22 20 28 27 14 25 42 -3 68 -28 27 -46
28 -49 5z"/>
<path d="M7844 5573 c-9 -20 -45 -66 -80 -102 -36 -36 -71 -78 -78 -93 -17
-33 -83 -114 -154 -187 -51 -53 -60 -81 -27 -81 9 0 18 7 21 15 4 8 11 15 17
15 6 0 19 7 29 17 21 19 56 40 81 49 10 4 17 17 17 31 0 26 35 76 102 148 20
22 53 61 73 88 34 45 44 51 73 48 22 -3 13 35 -16 62 -15 15 -31 27 -36 27 -4
0 -14 -16 -22 -37z"/>
<path d="M1282 5508 c-21 -21 -13 -38 17 -38 41 0 89 -30 100 -62 7 -19 17
-28 32 -28 26 0 99 -73 99 -99 0 -10 -6 -24 -14 -30 -11 -10 -22 -6 -50 20
-20 17 -36 39 -36 49 0 27 -17 34 -29 11 -16 -28 -4 -54 46 -104 43 -43 54
-49 79 -43 24 6 28 18 24 64 -1 19 3 23 22 22 41 -4 48 0 48 23 0 28 -17 47
-36 40 -8 -3 -38 18 -72 50 -31 30 -73 68 -92 83 -19 16 -41 35 -48 41 -17 16
-74 17 -90 1z"/>
<path d="M945 5470 c-3 -11 -11 -20 -16 -20 -5 0 -9 -11 -9 -26 0 -25 62 -94
85 -94 15 0 84 -38 105 -58 10 -9 71 -55 134 -102 78 -57 118 -93 122 -110 4
-14 9 -29 12 -34 6 -11 72 63 72 81 0 7 -16 15 -35 19 -19 3 -47 17 -61 31
-15 14 -50 41 -78 61 -28 20 -57 42 -65 49 -8 8 -26 22 -40 31 -29 19 -35 24
-71 53 -14 12 -44 34 -66 51 -27 19 -44 40 -48 59 -6 33 -32 39 -41 9z"/>
<path d="M7969 5448 c-17 -32 -42 -58 -56 -58 -18 0 -16 -27 2 -34 8 -3 19 3
25 14 7 13 23 20 53 22 39 3 42 5 42 32 0 24 -5 31 -28 37 -22 6 -29 3 -38
-13z"/>
<path d="M1267 5415 c7 -52 54 -105 77 -86 12 10 13 18 6 32 -15 27 -56 69
-68 69 -6 0 -13 6 -15 13 -3 6 -3 -6 0 -28z"/>
<path d="M7844 5345 c-4 -8 -14 -15 -25 -15 -10 0 -22 -6 -26 -13 -4 -8 -16
-17 -26 -20 -10 -4 -15 -11 -12 -17 10 -15 35 -12 35 5 0 9 9 15 25 15 14 0
25 4 25 9 0 5 11 12 25 15 14 4 25 13 25 21 0 20 -39 19 -46 0z"/>
<path d="M781 5255 c-24 -26 -23 -55 4 -55 14 0 61 -25 75 -40 18 -19 46 -26
62 -16 13 8 21 6 36 -7 10 -9 23 -17 28 -17 14 0 277 -132 292 -147 16 -16 29
-16 37 -2 10 15 -106 134 -128 130 -19 -3 -341 152 -352 169 -10 16 -29 11
-54 -15z"/>
<path d="M7706 5262 c-3 -6 -1 -14 5 -17 15 -10 25 3 12 16 -7 7 -13 7 -17 1z"/>
<path d="M7773 5168 c-13 -13 -23 -29 -23 -35 0 -18 32 -24 49 -10 46 38 101
42 101 7 0 -23 -55 -70 -81 -70 -11 0 -24 -10 -30 -22 -12 -28 -106 -88 -124
-81 -17 6 -26 29 -19 46 6 14 63 52 94 62 11 3 18 11 15 16 -8 12 -62 12 -70
-1 -3 -5 -15 -10 -26 -10 -20 0 -89 -61 -89 -79 0 -18 43 -51 67 -51 25 0 29
-10 12 -27 -18 -18 -3 -43 25 -43 16 0 27 7 31 21 4 11 35 40 68 65 159 114
177 131 177 169 0 42 -15 51 -95 60 -55 6 -62 5 -82 -17z"/>
<path d="M4935 5095 c-22 -13 -47 -27 -55 -30 -8 -4 -22 -11 -30 -16 -8 -5
-22 -12 -30 -15 -8 -3 -28 -12 -43 -20 -16 -7 -36 -14 -46 -14 -10 0 -27 -11
-39 -23 l-22 -24 30 -23 c16 -13 30 -32 30 -44 1 -12 7 -32 15 -46 20 -36 20
-119 -1 -127 -9 -3 -25 -1 -35 5 -29 18 -203 16 -219 -3 -7 -8 -18 -15 -24
-15 -14 -1 -61 -41 -70 -60 -3 -8 -17 -33 -31 -55 -13 -22 -24 -51 -25 -65 0
-14 -7 -36 -15 -50 -8 -14 -14 -47 -14 -75 0 -27 6 -61 14 -75 8 -14 14 -39
15 -56 0 -17 7 -37 15 -44 8 -7 15 -20 15 -29 0 -17 69 -91 85 -91 4 0 17 -7
27 -17 27 -24 189 -25 216 0 20 18 52 22 68 8 12 -11 262 -22 269 -12 2 5 -11
29 -30 54 l-35 46 0 413 c0 227 5 429 10 448 5 19 12 45 15 58 9 29 -7 28 -60
-3z m-194 -477 c16 -21 18 -42 19 -220 l0 -196 -36 -21 c-53 -31 -101 -28
-141 11 -24 23 -33 41 -33 64 0 18 -4 43 -8 56 -13 33 7 230 24 249 8 8 14 20
14 24 0 5 12 19 28 32 38 31 107 32 133 1z"/>
<path d="M5391 5099 c-19 -10 -39 -23 -44 -28 -6 -6 -19 -11 -28 -11 -9 0 -22
-7 -29 -15 -7 -8 -23 -15 -35 -15 -12 0 -28 -6 -35 -14 -6 -8 -25 -16 -42 -18
-44 -4 -45 -22 -4 -63 l36 -36 0 -362 0 -363 -31 -32 c-17 -17 -29 -39 -27
-48 3 -16 21 -18 176 -19 187 -1 191 0 148 52 -25 29 -25 31 -27 266 -2 231
-2 238 19 257 32 30 61 25 99 -17 l33 -38 0 -251 c0 -220 2 -253 16 -258 9 -3
60 -6 115 -6 80 0 101 3 106 15 3 9 -2 24 -11 34 -14 15 -16 50 -16 253 0 197
-2 238 -15 248 -8 7 -15 20 -15 29 0 19 -49 71 -67 71 -6 0 -16 7 -23 15 -18
21 -142 21 -175 -1 -13 -8 -34 -14 -46 -12 -21 3 -22 5 -20 196 2 211 4 205
-58 171z m-23 -401 c2 -12 -2 -15 -17 -11 -12 3 -21 12 -21 20 0 20 34 12 38
-9z"/>
<path d="M1010 5050 c0 -13 37 -50 50 -50 16 0 11 14 -14 38 -26 24 -36 28
-36 12z"/>
<path d="M1696 5045 c-11 -8 -30 -15 -42 -15 -12 0 -27 -7 -34 -15 -7 -8 -18
-15 -24 -15 -23 0 -71 -67 -83 -116 -16 -66 1 -134 47 -180 30 -31 38 -34 90
-34 39 0 62 5 70 15 7 8 17 15 22 15 23 0 47 46 48 91 0 40 -5 51 -37 83 -37
37 -40 37 -90 31 -47 -6 -53 -4 -53 12 1 36 49 58 127 57 70 -1 75 -2 121 -41
26 -22 48 -49 50 -61 2 -11 10 -26 18 -32 8 -7 14 -25 14 -40 0 -15 7 -33 15
-40 8 -7 15 -27 15 -45 0 -18 7 -38 15 -45 8 -7 15 -29 15 -50 0 -21 7 -43 15
-50 8 -7 15 -29 15 -49 0 -20 7 -45 15 -55 8 -11 15 -34 15 -51 0 -17 7 -40
15 -51 8 -10 15 -33 15 -50 0 -16 7 -39 15 -50 8 -10 15 -36 15 -56 0 -20 9
-53 21 -72 20 -34 24 -36 73 -36 63 0 86 19 86 71 0 19 7 43 15 53 8 11 15 34
15 51 0 17 7 40 15 51 8 10 15 35 15 54 0 19 7 44 15 54 8 11 15 34 15 52 0
30 32 84 50 84 11 0 40 -92 40 -128 0 -16 7 -35 15 -42 8 -7 15 -29 15 -49 0
-20 7 -45 15 -55 8 -11 15 -34 15 -51 0 -17 6 -40 14 -51 8 -11 16 -36 18 -55
l3 -34 72 -3 c71 -3 72 -2 88 27 8 17 15 47 15 68 0 21 7 47 15 57 8 11 15 36
15 56 0 20 7 45 15 56 8 10 15 31 15 45 0 14 7 34 15 45 8 10 15 30 15 44 0
14 7 36 15 50 8 14 14 37 15 51 0 14 7 34 15 45 8 10 15 30 15 44 0 14 7 36
15 50 8 14 14 37 15 51 0 14 7 34 15 45 8 10 15 29 15 40 0 12 7 27 15 34 8 7
15 20 15 28 0 9 17 31 37 49 22 20 33 37 27 42 -5 5 -61 12 -124 14 -63 3
-130 9 -147 13 -27 5 -33 3 -33 -10 0 -9 4 -16 10 -16 5 0 32 -23 60 -50 47
-48 50 -54 50 -104 0 -30 -6 -60 -15 -72 -8 -10 -15 -33 -15 -50 0 -16 -7 -39
-15 -50 -8 -10 -15 -33 -15 -50 0 -16 -7 -39 -15 -50 -8 -10 -15 -32 -15 -49
0 -16 -7 -39 -15 -49 -8 -11 -15 -32 -15 -46 0 -37 -44 -59 -60 -30 -5 10 -7
25 -4 34 3 8 -1 30 -10 47 -9 18 -16 49 -16 69 0 20 -7 45 -15 56 -8 10 -15
37 -15 59 0 22 -7 49 -15 59 -8 11 -15 36 -15 56 0 20 -7 45 -15 56 -23 30
-18 79 15 134 17 28 30 52 30 53 0 1 -206 3 -457 5 -392 1 -461 0 -477 -13z
m589 -47 c26 -25 45 -52 45 -64 0 -12 7 -27 15 -34 9 -7 15 -29 15 -55 0 -26
6 -48 15 -55 20 -16 20 -108 0 -134 -8 -11 -15 -32 -15 -46 0 -14 -7 -35 -15
-46 -8 -10 -15 -35 -15 -54 0 -40 -40 -98 -58 -86 -7 4 -12 25 -12 46 0 21 -4
42 -10 45 -5 3 -10 25 -10 49 0 23 -7 51 -15 62 -8 10 -15 38 -15 60 0 24 -6
47 -15 54 -8 7 -15 29 -15 49 0 21 -7 46 -15 57 -10 13 -14 44 -15 96 0 74 1
77 28 86 47 18 62 13 107 -30z"/>
<path d="M1080 4985 c0 -8 7 -15 15 -15 20 0 110 -89 119 -118 10 -30 28 -28
55 9 28 37 15 59 -34 59 -20 0 -42 9 -59 25 -15 14 -31 25 -35 25 -5 0 -14 7
-21 15 -7 8 -19 15 -26 15 -8 0 -14 -7 -14 -15z"/>
<path d="M7965 4978 c-4 -15 -23 -33 -51 -48 -24 -14 -44 -28 -44 -32 0 -5 -6
-8 -14 -8 -8 0 -21 -7 -30 -15 -8 -8 -38 -27 -65 -41 -28 -14 -51 -27 -51 -29
0 -15 21 -55 30 -55 5 0 23 14 38 30 16 17 34 30 40 30 6 0 17 6 24 13 21 20
134 87 148 87 7 0 21 10 31 22 17 19 17 24 5 42 -20 31 -54 33 -61 4z"/>
<path d="M8023 4913 c-20 -8 -15 -51 6 -63 26 -13 78 28 68 53 -6 16 -46 22
-74 10z"/>
<path d="M8356 4823 c-8 -22 -132 -96 -147 -87 -6 3 -25 -7 -42 -23 -35 -33
-148 -103 -166 -103 -6 0 -11 -4 -11 -9 0 -5 -16 -15 -35 -21 -28 -9 -39 -9
-50 0 -45 37 114 161 227 176 38 5 48 10 46 23 -5 25 -78 26 -135 1 -82 -36
-105 -50 -161 -98 -40 -35 -57 -85 -35 -103 8 -7 22 -29 31 -48 21 -44 47 -50
72 -18 11 14 37 34 57 45 88 46 108 57 113 63 6 7 42 26 110 60 25 12 47 25
50 28 3 4 29 18 58 31 28 14 52 28 52 31 0 4 9 9 20 12 28 7 26 43 -2 51 -36
9 -46 7 -52 -11z"/>
<path d="M3350 4775 c-7 -8 -20 -15 -30 -15 -10 0 -23 -7 -30 -15 -7 -8 -27
-15 -45 -15 -18 0 -38 -7 -45 -15 -7 -8 -34 -15 -68 -17 -63 -3 -78 -21 -45
-53 38 -39 47 -84 50 -266 3 -149 2 -178 -12 -189 -8 -7 -15 -17 -15 -23 0 -6
-12 -21 -27 -33 -16 -12 -25 -25 -21 -29 5 -5 288 -10 356 -6 19 1 14 20 -13
44 l-25 22 -1 313 c0 171 -4 312 -8 312 -5 0 -14 -7 -21 -15z"/>
<path d="M3760 4775 c-7 -8 -25 -15 -40 -15 -15 0 -33 -7 -40 -15 -7 -8 -27
-15 -46 -15 -18 0 -36 -4 -39 -10 -3 -5 -16 -10 -28 -10 -12 0 -29 -5 -37 -10
-12 -7 -8 -15 22 -42 l37 -33 2 -233 c1 -223 0 -234 -19 -255 -12 -12 -18 -27
-14 -32 4 -6 72 -11 155 -13 132 -3 147 -1 147 14 0 9 -7 22 -16 29 -14 10
-18 43 -23 206 -8 217 -2 278 28 308 30 30 78 27 107 -5 24 -25 24 -26 24
-285 0 -199 3 -261 13 -264 14 -5 251 -24 255 -20 2 2 -7 22 -42 90 -6 12 -10
115 -10 251 -1 206 -3 234 -18 251 -10 11 -18 24 -18 30 0 15 -42 51 -86 73
-61 32 -108 26 -194 -22 -32 -18 -41 -20 -55 -14 -8 3 -15 17 -15 31 0 29 -29
35 -50 10z"/>
<path d="M6120 4775 c-19 -7 -53 -14 -76 -14 -36 -1 -48 -8 -93 -52 -44 -45
-51 -57 -51 -91 0 -51 31 -92 82 -109 31 -10 44 -10 59 -1 10 7 25 12 33 12
17 0 56 51 56 73 0 8 -7 28 -15 43 -25 49 -20 64 23 64 55 0 90 -41 92 -107 3
-71 3 -71 -30 -78 -16 -4 -32 -11 -35 -16 -4 -5 -18 -9 -33 -9 -15 -1 -45 -9
-67 -20 -22 -11 -44 -19 -49 -20 -4 0 -30 -16 -56 -35 -55 -40 -90 -99 -90
-151 0 -55 80 -164 121 -164 9 0 33 -7 52 -15 58 -24 84 -20 167 27 35 20 43
20 52 5 9 -17 35 -23 140 -31 79 -6 90 6 58 66 -18 35 -20 57 -20 257 0 182
-3 221 -15 231 -8 7 -15 21 -15 31 0 20 -79 89 -102 89 -9 0 -32 7 -51 15 -44
18 -90 18 -137 0z m111 -342 c3 -89 -4 -220 -13 -230 -17 -20 -89 -15 -117 8
-21 17 -25 29 -25 85 -1 61 1 66 34 98 52 49 119 71 121 39z"/>
<path d="M6782 4745 c-7 -8 -25 -15 -40 -15 -16 0 -37 -7 -48 -15 -10 -8 -38
-15 -61 -15 -32 0 -46 -5 -57 -22 -15 -21 -14 -23 15 -48 l31 -26 -1 -224 c-2
-209 -3 -226 -22 -246 -31 -33 -7 -40 139 -36 143 4 149 7 112 55 -19 23 -20
40 -20 234 1 189 2 210 19 231 14 16 30 22 58 22 37 0 39 -2 54 -47 12 -38 15
-93 13 -270 l-2 -223 102 -1 c103 -1 128 0 135 7 2 2 -8 19 -23 38 l-26 35 0
208 c0 208 0 208 25 231 38 37 75 27 103 -27 23 -45 23 -46 13 -250 -6 -132
-6 -211 0 -223 8 -16 24 -18 124 -18 62 0 116 4 120 10 3 5 -8 16 -25 25 -34
18 -31 -11 -30 291 1 160 -2 193 -15 204 -8 7 -15 17 -15 22 0 5 -12 24 -26
43 -30 39 -74 50 -163 40 -45 -5 -66 -13 -90 -36 -18 -16 -34 -29 -37 -29 -3
0 -17 12 -32 28 -15 15 -44 36 -65 46 -36 18 -39 19 -73 3 -19 -9 -41 -17 -48
-17 -8 0 -19 -7 -26 -15 -7 -8 -26 -15 -42 -15 -25 0 -28 3 -26 28 2 21 -2 28
-17 29 -11 2 -26 -4 -33 -12z"/>
<path d="M699 4679 c-23 -33 -29 -81 -10 -87 6 -2 11 -9 11 -15 0 -20 53 -67
76 -67 36 0 36 26 1 53 -18 13 -40 26 -49 30 -22 8 -23 30 -3 47 11 9 22 9 52
-1 44 -14 62 -34 64 -69 1 -21 2 -22 6 -5 9 35 20 37 62 11 22 -14 45 -26 51
-26 6 0 14 -10 19 -22 9 -25 3 -58 -10 -58 -13 0 -50 21 -76 44 -21 17 -43 15
-43 -5 0 -5 19 -28 42 -50 37 -35 47 -40 83 -37 l40 3 -1 43 c-1 37 2 42 21
42 11 0 26 5 33 12 27 27 4 75 -28 58 -17 -9 -54 7 -223 99 -72 39 -90 39
-118 0z"/>
<path d="M8226 4574 c-16 -7 -34 -14 -41 -14 -28 0 -95 -90 -95 -128 0 -24
-49 -62 -81 -62 -37 0 -43 13 -19 43 25 31 25 47 2 47 -22 0 -62 -40 -62 -62
0 -8 11 -27 24 -43 22 -25 28 -27 76 -23 47 5 56 10 101 58 27 29 49 61 49 71
0 22 57 89 75 89 24 0 26 -37 6 -74 -12 -20 -19 -36 -17 -36 23 0 64 26 73 47
11 23 9 29 -14 57 -36 43 -45 47 -77 30z"/>
<path d="M8517 4471 c-19 -17 -38 -31 -42 -31 -5 0 -42 -16 -84 -36 -42 -20
-85 -40 -96 -45 -40 -16 -121 -51 -150 -64 -16 -8 -49 -22 -72 -32 -45 -19
-51 -30 -30 -52 10 -11 10 -14 0 -18 -15 -5 -18 -33 -4 -33 5 0 11 -9 14 -20
5 -18 14 -20 78 -20 64 0 83 5 144 35 124 62 176 131 125 163 -19 12 -18 42 2
42 9 0 39 12 113 45 17 7 42 16 58 19 33 8 34 25 3 55 l-24 22 -35 -30z m-160
-177 c6 -17 -42 -61 -100 -93 -58 -32 -131 -47 -172 -37 -24 6 -36 26 -15 26
6 0 21 11 34 25 13 14 26 25 30 25 10 0 96 38 126 55 28 17 92 16 97 -1z"/>
<path d="M577 4440 c-13 -26 -13 -33 0 -63 22 -47 121 -111 220 -141 69 -21
83 -20 118 8 27 22 28 26 20 61 -10 37 -57 77 -72 61 -4 -5 -2 -11 5 -13 19
-7 14 -51 -7 -63 -21 -10 -78 -3 -87 11 -3 5 -13 9 -22 9 -41 0 -142 70 -142
98 0 15 26 14 103 -4 32 -7 36 9 11 44 -13 18 -25 22 -74 22 -55 0 -59 -2 -73
-30z"/>
<path d="M283 4334 c-4 -11 3 -23 18 -35 63 -50 120 -26 69 29 -25 26 -78 30
-87 6z"/>
<path d="M527 4253 c-11 -11 -8 -48 5 -61 7 -7 29 -12 49 -12 21 0 50 -6 66
-14 15 -8 46 -22 68 -31 22 -10 58 -26 81 -36 51 -24 61 -24 69 1 8 26 -1 40
-26 40 -10 0 -27 4 -37 10 -31 17 -111 50 -122 50 -5 0 -18 4 -28 9 -45 24
-103 51 -111 51 -4 0 -11 -3 -14 -7z"/>
<path d="M442 4098 c-15 -15 -16 -55 -1 -64 6 -3 18 0 26 8 13 13 20 13 56 1
23 -8 46 -19 51 -24 6 -5 25 -9 44 -9 18 0 53 -9 78 -20 35 -16 44 -26 44 -45
0 -22 -4 -25 -35 -25 -27 0 -43 8 -70 36 -28 28 -36 32 -41 20 -3 -8 -1 -21 5
-28 6 -7 19 -22 29 -33 24 -28 62 -51 97 -59 31 -6 41 -2 64 27 12 15 11 20
-3 36 -21 23 -12 47 20 55 31 8 31 33 -1 48 -18 8 -28 8 -38 0 -10 -9 -18 -8
-33 2 -10 7 -35 17 -54 21 -19 4 -39 11 -45 15 -5 4 -25 11 -43 15 -18 4 -45
13 -60 21 -33 17 -74 18 -90 2z"/>
<path d="M8325 4100 c-75 -19 -185 -83 -185 -109 0 -6 -4 -11 -9 -11 -5 0 -13
-9 -16 -20 -5 -15 2 -29 24 -52 30 -31 30 -31 118 -26 74 5 98 10 148 37 70
37 115 82 115 114 0 12 -11 35 -25 50 -23 24 -33 27 -83 26 -31 -1 -70 -4 -87
-9z m155 -58 c0 -10 -8 -24 -17 -32 -28 -24 -102 -60 -123 -60 -10 0 -22 -4
-25 -10 -3 -5 -42 -10 -86 -10 -69 0 -79 2 -79 18 0 9 8 22 18 27 63 34 133
65 146 65 8 0 18 5 21 10 3 6 37 10 76 10 59 0 69 -2 69 -18z"/>
<path d="M430 3998 c0 -17 81 -88 100 -88 10 0 23 6 29 14 9 11 6 18 -16 34
-15 11 -38 23 -50 26 -13 4 -23 12 -23 17 0 5 -9 9 -20 9 -11 0 -20 -5 -20
-12z"/>
<path d="M8477 3863 c-10 -10 -39 -23 -65 -30 -26 -6 -74 -18 -107 -27 -33 -8
-73 -15 -89 -16 -21 0 -27 -4 -22 -16 3 -9 6 -24 6 -35 0 -21 28 -38 39 -23
13 19 61 44 83 44 13 0 35 6 49 14 34 17 92 28 113 20 9 -3 16 -16 16 -28 0
-42 14 -51 59 -37 23 6 41 18 41 25 0 19 -34 46 -58 46 -32 0 -37 19 -8 30 33
12 33 24 1 38 -34 16 -38 15 -58 -5z"/>
<path d="M2530 3845 c-14 -8 -35 -14 -46 -15 -12 0 -27 -7 -34 -15 -7 -8 -19
-15 -27 -15 -30 0 -183 -152 -183 -181 0 -11 -7 -22 -15 -25 -8 -4 -15 -18
-15 -32 0 -14 -7 -33 -15 -43 -23 -25 -23 -323 0 -349 8 -9 15 -31 15 -49 0
-19 6 -34 15 -37 8 -4 15 -14 15 -23 0 -38 133 -161 174 -161 7 0 19 -6 25
-14 20 -24 188 -37 281 -22 41 7 91 25 130 48 8 4 22 11 30 15 29 14 109 102
116 127 3 14 10 29 15 32 13 8 11 54 -2 54 -7 0 -25 -13 -41 -30 -15 -16 -33
-30 -38 -30 -6 0 -10 -4 -10 -9 0 -5 -10 -13 -22 -17 -13 -3 -30 -12 -38 -19
-29 -25 -152 -35 -235 -20 -42 8 -131 69 -155 107 -32 51 -50 94 -50 118 -1
14 -7 36 -15 50 -20 35 -20 228 0 254 8 11 15 32 15 48 0 15 4 28 9 28 5 0 13
10 16 23 9 27 84 97 106 97 9 0 22 7 29 15 9 10 32 15 77 15 81 0 123 -26 123
-76 0 -19 -6 -34 -15 -38 -10 -3 -15 -19 -15 -45 0 -48 44 -100 103 -120 45
-15 96 -1 140 38 24 22 27 32 27 87 0 42 -5 65 -15 74 -8 7 -15 18 -15 24 0
17 -75 86 -93 86 -8 0 -20 7 -27 15 -7 8 -24 15 -39 15 -14 0 -35 7 -45 15
-27 21 -220 20 -256 0z"/>
<path d="M6800 3845 c-7 -8 -18 -15 -25 -15 -7 0 -18 -7 -25 -15 -7 -8 -20
-15 -30 -15 -10 0 -23 -7 -30 -15 -7 -8 -22 -15 -34 -15 -11 0 -30 -7 -40 -15
-11 -8 -32 -15 -47 -15 -42 0 -47 -20 -13 -49 65 -57 64 -50 64 -391 l0 -311
-25 -33 c-27 -36 -32 -56 -12 -57 6 0 80 -1 162 -1 128 -1 150 2 153 15 2 8
-6 18 -17 22 -12 3 -21 12 -21 19 0 8 -7 19 -15 26 -13 11 -15 73 -15 446 0
242 -4 434 -9 434 -5 0 -14 -7 -21 -15z"/>
<path d="M350 3825 c-15 -18 -5 -65 15 -65 8 0 18 7 23 16 10 18 88 22 119 6
10 -6 38 -13 63 -17 24 -4 64 -16 88 -26 59 -26 82 -18 82 27 0 35 -15 45 -37
23 -7 -7 -17 -8 -29 -1 -11 5 -37 13 -59 16 -22 4 -59 14 -83 22 -58 19 -166
19 -182 -1z"/>
<path d="M4933 3767 c-19 -42 -171 -202 -251 -265 -55 -44 -55 -62 1 -62 l44
0 11 -192 c7 -106 15 -211 18 -234 6 -45 49 -98 103 -126 41 -23 133 -24 151
-3 7 8 18 15 25 15 14 0 65 69 65 89 0 9 -12 10 -45 5 -36 -5 -50 -3 -65 11
-19 17 -20 32 -20 225 l0 208 25 6 c14 4 30 4 35 1 16 -10 60 18 66 42 4 13 4
27 0 30 -3 4 -33 5 -67 4 l-61 -2 2 123 c1 68 2 129 1 136 -2 20 -27 14 -38
-11z m-63 -292 c0 -8 -4 -15 -9 -15 -13 0 -22 16 -14 24 11 11 23 6 23 -9z"/>
<path d="M380 3730 c0 -5 -12 -13 -27 -16 -31 -8 -43 -20 -43 -47 0 -28 29
-32 52 -8 17 19 27 21 62 16 22 -4 46 -11 51 -15 6 -5 33 -11 60 -15 28 -4 55
-11 60 -14 21 -15 93 -33 104 -27 6 4 11 20 11 36 0 26 -3 28 -37 28 -44 0
-158 23 -169 35 -4 4 -17 7 -28 7 -12 0 -34 7 -50 15 -33 17 -46 19 -46 5z"/>
<path d="M8455 3670 c-11 -5 -37 -11 -57 -15 -21 -3 -38 -10 -38 -15 0 -6 -6
-10 -13 -10 -21 0 -78 -46 -93 -76 -16 -30 -18 -54 -5 -54 5 0 12 -9 16 -19 6
-19 49 -32 105 -32 46 -1 145 20 148 30 2 6 11 11 19 11 25 0 103 69 103 91 0
22 -35 27 -43 5 -5 -12 -26 -24 -124 -69 -26 -12 -188 -16 -199 -5 -9 10 31
43 76 63 19 9 42 20 51 25 9 4 38 12 65 16 27 3 60 11 72 15 17 7 32 4 53 -8
21 -13 32 -14 40 -6 38 38 -108 82 -176 53z"/>
<path d="M320 3601 c-18 -35 -2 -51 50 -51 27 0 51 -4 55 -9 3 -6 27 -13 53
-16 26 -3 55 -10 64 -16 10 -5 26 -9 36 -9 9 0 28 -7 40 -16 21 -15 25 -15 43
2 11 10 19 27 17 37 -2 16 -12 20 -48 22 -67 4 -235 48 -245 65 -11 17 -54 11
-65 -9z"/>
<path d="M6000 3575 c-14 -8 -35 -14 -47 -15 -12 0 -25 -5 -28 -11 -4 -5 -18
-14 -31 -19 -35 -14 -84 -87 -84 -125 0 -50 69 -115 121 -115 21 0 57 9 79 21
39 21 40 22 40 75 0 38 -4 56 -14 60 -23 9 -27 43 -6 54 35 19 140 7 140 -15
0 -7 7 -18 15 -25 10 -9 15 -31 15 -72 0 -50 -4 -63 -22 -79 -13 -10 -34 -19
-48 -19 -14 0 -34 -7 -44 -15 -11 -8 -30 -15 -42 -15 -12 0 -27 -7 -34 -15 -7
-8 -25 -15 -40 -15 -15 0 -33 -7 -40 -15 -7 -8 -23 -15 -35 -15 -12 0 -28 -7
-35 -15 -7 -8 -18 -15 -24 -15 -7 0 -22 -13 -34 -30 -18 -23 -22 -43 -22 -99
0 -67 2 -72 34 -103 58 -57 88 -68 186 -68 66 0 91 4 100 15 7 8 18 15 25 15
7 0 18 7 25 15 17 20 49 19 73 -2 28 -26 204 -33 213 -9 4 9 -1 25 -10 35 -14
15 -16 48 -16 227 0 169 -3 214 -15 230 -8 10 -15 29 -15 42 0 12 -7 25 -15
28 -8 4 -15 10 -15 15 0 12 -37 49 -49 49 -5 0 -14 7 -21 15 -7 8 -23 15 -35
15 -12 0 -28 7 -35 15 -17 20 -174 20 -210 0z m202 -347 c2 -7 2 -57 0 -110
-3 -73 -7 -98 -16 -98 -8 0 -19 -7 -26 -15 -9 -10 -31 -15 -72 -15 -50 0 -63
4 -79 23 -21 25 -25 80 -6 104 26 33 72 76 92 85 11 5 31 15 45 23 31 18 57
19 62 3z"/>
<path d="M5565 3562 c-16 -2 -46 -17 -67 -34 -43 -34 -68 -31 -68 7 0 29 -32
35 -56 10 -9 -8 -28 -15 -43 -15 -16 0 -34 -7 -41 -15 -7 -8 -27 -15 -46 -15
-18 0 -36 -4 -39 -10 -3 -5 -14 -10 -24 -10 -9 0 -22 -5 -29 -12 -9 -9 -4 -18
20 -38 48 -40 57 -95 48 -294 l-8 -166 -31 -35 c-17 -20 -31 -40 -31 -46 0 -6
62 -8 168 -7 160 3 167 4 164 23 -2 10 -11 25 -20 31 -15 11 -17 39 -17 231 0
217 0 218 25 252 37 50 89 82 112 70 26 -14 23 -31 -12 -64 -16 -16 -30 -38
-30 -49 0 -64 91 -118 154 -92 52 22 61 41 60 125 0 74 -2 78 -36 112 -37 37
-86 51 -153 41z"/>
<path d="M4060 3545 c-7 -8 -18 -15 -25 -15 -7 0 -18 -7 -25 -15 -7 -8 -20
-15 -30 -15 -10 0 -23 -7 -30 -15 -7 -8 -23 -15 -37 -15 -13 0 -42 -10 -65
-21 -40 -20 -41 -22 -22 -35 10 -7 29 -23 42 -36 21 -22 22 -29 22 -224 0
-188 -1 -202 -20 -219 -11 -10 -20 -26 -20 -37 0 -16 9 -18 73 -19 39 0 108
-1 152 -1 52 -1 79 2 78 9 -1 6 -14 36 -28 66 -24 53 -25 65 -25 226 0 191 7
216 69 246 33 16 35 16 70 -13 34 -28 36 -33 43 -108 4 -43 9 -151 12 -239 4
-137 7 -161 22 -172 12 -9 53 -13 122 -13 l104 0 -7 28 c-4 15 -11 101 -15
191 -5 90 -14 186 -19 213 -6 27 -11 61 -11 76 0 34 -67 112 -97 112 -11 0
-26 7 -33 15 -19 23 -113 19 -171 -7 -27 -13 -49 -26 -49 -30 0 -5 -9 -8 -20
-8 -17 0 -20 7 -20 45 0 48 -16 59 -40 30z"/>
<path d="M3346 3515 c-11 -8 -31 -15 -46 -15 -28 0 -130 -82 -130 -105 0 -7
-6 -18 -14 -24 -8 -7 -16 -28 -19 -49 -2 -20 -10 -63 -16 -94 -10 -47 -9 -63
4 -94 8 -20 15 -49 15 -64 0 -15 7 -33 15 -40 8 -7 15 -20 15 -29 0 -19 59
-88 92 -107 30 -17 33 -18 100 -40 53 -16 59 -17 100 -1 24 9 53 17 65 17 11
0 26 7 33 15 7 8 18 15 25 15 13 0 95 77 95 90 0 4 9 17 20 30 24 27 25 43 6
59 -11 9 -16 9 -23 -1 -13 -22 -71 -58 -91 -58 -11 0 -35 -6 -54 -14 -30 -13
-38 -13 -62 0 -16 8 -35 14 -42 14 -19 0 -65 29 -87 54 -27 31 -48 87 -41 108
5 17 20 18 221 18 l215 0 -6 23 c-4 12 -12 49 -18 82 -6 33 -17 67 -25 76 -7
8 -13 20 -13 26 0 18 -81 93 -100 93 -10 0 -23 7 -30 15 -17 21 -177 21 -204
0z m115 -75 c36 -20 70 -87 67 -133 l-3 -42 -101 -3 c-89 -2 -102 0 -118 17
-17 18 -17 22 -2 43 9 12 16 28 16 36 0 7 10 27 23 44 33 45 78 59 118 38z"/>
<path d="M275 3428 c-24 -18 -26 -26 -21 -60 10 -58 68 -108 127 -108 62 0 18
55 -53 67 -41 6 -51 30 -23 53 19 15 83 5 108 -18 17 -15 19 -15 28 0 10 19
59 15 117 -9 26 -11 33 -19 30 -36 -4 -30 -48 -34 -98 -8 -25 13 -42 16 -46
10 -10 -16 39 -57 89 -74 42 -14 50 -14 76 0 41 20 45 30 25 60 -16 25 -16 27
5 46 38 36 19 84 -26 61 -17 -8 -175 7 -213 21 -8 3 -34 8 -56 11 -33 5 -47 1
-69 -16z"/>
<path d="M0 3164 c0 -54 1 -56 18 -41 14 13 27 14 77 7 33 -6 125 -17 205 -25
190 -20 258 -30 266 -37 13 -14 -9 -28 -45 -28 -41 0 -67 -20 -57 -45 4 -11
20 -15 59 -15 45 0 57 4 75 25 26 29 28 53 7 61 -8 4 -15 13 -15 20 0 8 -12
19 -27 25 -16 6 -37 16 -47 21 -20 11 -93 20 -306 38 -115 10 -144 16 -192 41
-16 8 -18 3 -18 -47z"/>
<path d="M8911 3139 c-19 -11 -55 -25 -80 -30 -101 -19 -157 -32 -176 -40 -24
-11 -104 -27 -204 -40 -82 -10 -86 -12 -78 -32 3 -8 37 -18 91 -26 77 -12 89
-11 104 3 27 24 87 46 126 46 19 0 37 4 41 9 3 6 27 13 53 16 26 4 65 13 87
20 29 9 44 10 57 2 21 -13 24 -11 32 28 4 19 2 37 -6 48 -12 16 -15 16 -47 -4z"/>
<path d="M8881 2980 c-30 -11 -82 -21 -115 -22 -42 -2 -75 -10 -106 -26 -43
-23 -105 -38 -200 -48 -72 -8 -90 -13 -90 -29 0 -19 18 -23 160 -29 69 -2 112
-2 96 2 -58 14 -34 42 35 42 15 0 43 7 62 15 20 8 49 15 65 15 16 0 46 7 67
16 21 8 49 14 64 14 47 -3 51 -1 51 35 0 42 -10 43 -89 15z"/>
<path d="M8880 2813 c-99 -4 -133 -10 -125 -23 3 -6 43 -10 89 -10 69 0 87 -3
106 -20 36 -31 50 -26 50 20 0 32 -3 40 -17 38 -10 -1 -56 -3 -103 -5z"/>
<path d="M8362 2688 c-16 -16 -15 -50 1 -73 10 -12 16 -14 21 -7 9 16 207 16
276 1 60 -13 76 -4 66 35 l-6 26 -157 0 c-124 0 -160 3 -173 15 -13 11 -19 12
-28 3z"/>
<path d="M5278 2663 c-20 -2 -42 -11 -48 -19 -7 -8 -18 -14 -24 -14 -13 0 -56
-44 -56 -58 0 -5 -7 -15 -15 -22 -8 -7 -15 -22 -15 -34 0 -12 -7 -31 -15 -42
-8 -10 -15 -28 -15 -40 0 -11 -7 -29 -15 -40 -8 -10 -15 -28 -15 -40 0 -11 -7
-29 -15 -40 -8 -10 -15 -28 -15 -40 0 -11 -7 -29 -15 -40 -8 -10 -15 -27 -15
-37 0 -11 -6 -33 -13 -50 -22 -51 -39 -100 -44 -127 -7 -38 -42 -110 -53 -110
-5 0 -12 12 -15 28 -4 15 -10 35 -16 44 -5 10 -9 35 -9 56 0 21 -7 47 -15 58
-9 12 -14 43 -15 85 0 53 4 69 19 83 47 42 16 46 -276 33 -49 -2 -63 0 -63 11
0 8 -9 16 -20 19 -11 3 -20 10 -20 15 0 5 -13 14 -30 19 -16 6 -30 15 -30 20
0 18 -101 10 -127 -11 -21 -16 -35 -18 -87 -13 -49 4 -64 2 -75 -11 -7 -9 -25
-16 -40 -16 -14 0 -35 -7 -45 -15 -11 -8 -35 -15 -53 -15 -38 0 -45 -23 -13
-40 11 -6 20 -18 20 -28 0 -9 7 -26 15 -36 12 -16 15 -59 15 -217 l0 -198 -30
-33 c-43 -46 -39 -58 18 -58 26 0 97 -3 159 -7 l112 -6 -6 22 c-3 13 -12 25
-19 28 -8 3 -23 20 -34 38 -18 30 -20 49 -20 232 l0 200 48 52 c35 37 55 51
75 51 17 0 27 -5 27 -15 0 -8 -4 -15 -10 -15 -5 0 -10 -6 -10 -13 0 -7 -9 -20
-20 -30 -25 -21 -26 -84 -2 -112 9 -11 34 -29 54 -40 l37 -19 45 23 c56 28 91
93 81 152 -6 37 2 54 21 41 17 -12 41 -57 48 -90 4 -17 12 -34 17 -37 5 -4 9
-23 9 -44 0 -20 7 -46 15 -57 8 -10 15 -37 15 -59 0 -22 7 -49 15 -59 8 -11
15 -39 15 -62 0 -25 6 -47 15 -54 10 -8 15 -30 15 -61 0 -46 1 -48 33 -54 17
-3 63 -5 101 -3 65 3 71 5 87 33 10 17 18 48 19 70 0 22 7 49 15 59 8 11 15
34 15 51 0 17 7 40 15 51 8 10 15 31 15 45 0 14 7 34 15 45 8 10 15 28 15 39
0 11 7 33 15 49 8 15 15 34 15 42 0 14 20 66 46 117 8 16 14 35 14 44 0 8 6
27 13 41 8 15 21 42 30 60 9 19 17 43 17 54 0 30 42 19 58 -14 7 -16 19 -28
26 -28 8 0 19 -7 26 -15 14 -17 66 -20 75 -4 4 5 17 14 30 19 18 7 24 19 30
59 16 120 -28 166 -147 154z"/>
<path d="M1316 2645 c-11 -8 -34 -15 -52 -15 -17 0 -37 -7 -44 -15 -7 -8 -20
-15 -29 -15 -24 0 -121 -109 -121 -136 0 -13 -7 -39 -17 -58 -15 -32 -15 -38
0 -78 10 -24 17 -53 17 -65 0 -11 7 -23 15 -27 8 -3 15 -13 15 -21 0 -18 63
-82 95 -97 11 -5 47 -24 80 -43 33 -19 84 -46 112 -60 29 -15 55 -30 58 -36 4
-5 12 -9 20 -9 20 0 80 -59 100 -99 16 -33 16 -36 -4 -76 -25 -50 -72 -89
-121 -100 -44 -9 -125 -9 -166 0 -32 7 -94 56 -94 74 0 18 43 51 65 51 36 0
65 40 65 91 0 46 -10 60 -70 101 -32 22 -113 24 -130 3 -7 -8 -18 -15 -25 -15
-19 0 -41 -31 -60 -87 -17 -48 -17 -55 -3 -90 9 -21 19 -45 23 -53 25 -62 69
-103 144 -136 51 -23 66 -25 166 -21 106 3 170 18 197 45 7 7 20 12 30 12 10
0 21 7 24 15 4 8 10 15 15 15 5 0 31 23 58 51 46 48 49 54 54 117 6 78 -3 157
-24 192 -22 39 -110 120 -129 120 -10 0 -23 7 -30 15 -7 8 -23 15 -35 15 -13
0 -25 7 -29 15 -3 8 -14 15 -25 15 -17 0 -52 15 -101 42 -8 4 -21 11 -29 15
-35 16 -81 89 -81 127 0 32 33 92 68 121 25 21 40 25 94 25 50 0 69 -4 81 -18
23 -25 21 -37 -8 -60 -21 -16 -25 -28 -25 -68 0 -73 27 -95 119 -95 84 0 112
16 130 77 10 32 10 49 -1 83 -16 51 -100 141 -133 141 -11 0 -30 7 -41 15 -13
10 -45 14 -109 14 -64 0 -96 -4 -109 -14z"/>
<path d="M8863 2624 c-8 -22 8 -34 51 -36 41 -1 62 13 53 36 -5 11 -20 16 -52
16 -32 0 -47 -5 -52 -16z"/>
<path d="M194 2535 c-8 -19 12 -44 44 -56 24 -9 22 -29 -4 -29 -15 0 -18 -18
-8 -44 7 -18 45 -21 61 -5 7 7 60 10 156 7 l146 -3 5 27 c11 53 -10 71 -48 43
-15 -11 -48 -15 -127 -15 -117 0 -130 6 -126 56 2 28 0 29 -46 32 -36 2 -49
-1 -53 -13z"/>
<path d="M8356 2543 c-12 -13 -6 -54 10 -60 8 -3 26 0 38 7 18 9 41 9 97 1 41
-5 106 -12 144 -13 l70 -3 0 30 0 30 -100 2 c-55 1 -134 4 -176 7 -42 3 -79 2
-83 -1z"/>
<path d="M8690 2446 c0 -8 -7 -22 -16 -30 -22 -22 -244 -23 -277 -1 -29 19
-49 5 -45 -31 l3 -29 172 0 c163 0 174 1 194 21 18 18 20 27 12 50 -10 31 -43
46 -43 20z"/>
<path d="M2830 2380 c0 -5 -11 -12 -25 -16 -13 -3 -29 -12 -36 -20 -6 -8 -24
-14 -39 -14 -15 0 -33 -7 -40 -15 -7 -8 -27 -15 -44 -15 -21 0 -40 -8 -55 -24
l-23 -24 30 -16 29 -15 7 -160 c10 -219 -2 -577 -20 -592 -8 -6 -14 -17 -14
-25 0 -7 -10 -22 -21 -33 -22 -21 -20 -51 3 -51 7 0 27 9 43 20 17 11 44 20
61 20 16 0 39 7 50 15 10 8 36 15 57 15 40 0 97 24 97 40 0 6 -4 18 -10 28 -5
9 -16 48 -25 85 -20 86 -12 102 49 91 72 -12 170 -6 182 11 6 8 17 15 25 15
20 0 119 109 119 132 0 10 6 31 13 46 17 32 14 229 -2 245 -6 6 -11 25 -11 43
0 17 -7 37 -15 44 -8 7 -15 19 -15 27 0 20 -73 93 -93 93 -8 0 -20 7 -27 15
-26 31 -129 11 -185 -35 -18 -15 -29 4 -27 47 2 27 -1 33 -18 33 -11 0 -20 -4
-20 -10z m158 -168 c18 -16 32 -38 32 -48 0 -11 7 -29 15 -40 11 -14 14 -50
15 -146 0 -73 -4 -128 -9 -128 -5 0 -13 -10 -17 -22 -17 -55 -97 -93 -143 -69
-29 16 -33 54 -23 254 8 166 10 179 32 202 31 33 59 32 98 -3z"/>
<path d="M5780 2375 c-14 -8 -37 -14 -51 -15 -15 0 -32 -7 -39 -15 -7 -8 -18
-15 -24 -15 -22 0 -63 -55 -75 -100 -12 -49 -1 -105 29 -145 22 -30 95 -85
113 -85 8 0 20 -7 27 -15 7 -8 24 -15 39 -15 16 0 41 -14 64 -35 31 -29 37
-40 37 -75 0 -26 -8 -51 -22 -70 -19 -26 -28 -30 -69 -30 -59 0 -69 14 -62 87
7 60 -3 77 -55 99 -31 13 -39 12 -71 -3 -71 -35 -79 -122 -17 -178 62 -56 68
-59 156 -74 46 -8 75 -9 100 -1 19 5 47 10 61 10 15 0 32 7 39 15 7 8 20 15
29 15 21 1 52 28 74 67 27 48 23 153 -7 201 -25 40 -83 92 -102 92 -6 0 -17 7
-24 15 -7 8 -21 15 -32 15 -36 0 -116 51 -129 82 -10 24 -9 35 4 64 16 33 19
34 71 34 60 0 70 -10 61 -64 -12 -70 89 -122 148 -76 22 18 27 29 27 66 0 46
-31 104 -56 104 -6 0 -17 7 -24 15 -7 8 -24 15 -39 15 -14 0 -39 7 -55 15 -35
19 -93 19 -126 0z"/>
<path d="M7113 2363 c-12 -2 -27 -11 -33 -19 -7 -8 -20 -14 -29 -14 -10 0 -26
-7 -37 -15 -10 -8 -28 -15 -40 -15 -11 0 -29 -9 -40 -21 -17 -19 -17 -22 -3
-32 9 -7 19 -24 22 -38 14 -55 17 -208 7 -329 -9 -106 -14 -127 -30 -139 -23
-15 -26 -37 -7 -42 6 -2 72 -3 145 -1 139 3 149 7 113 46 -18 19 -20 39 -22
252 -2 227 -2 231 21 256 35 42 52 27 44 -41 -5 -47 -3 -59 12 -72 26 -22 66
-30 114 -23 35 6 43 12 56 43 13 31 14 44 3 91 -7 30 -25 67 -39 84 -23 25
-34 29 -83 30 -45 0 -61 -4 -80 -22 -30 -28 -35 -28 -47 3 -5 14 -13 24 -17
24 -5 -1 -18 -4 -30 -6z"/>
<path d="M2410 2350 c0 -5 -18 -14 -40 -20 -21 -6 -42 -15 -45 -20 -3 -6 -19
-10 -35 -10 -16 0 -31 -4 -35 -9 -3 -5 -19 -12 -35 -16 -37 -8 -38 -19 -5 -48
25 -22 25 -23 28 -207 2 -206 4 -201 -72 -244 l-33 -18 -36 30 -37 29 -1 259
-2 259 -28 -2 c-15 -1 -32 -9 -36 -18 -5 -8 -19 -15 -32 -15 -13 0 -29 -7 -36
-15 -7 -8 -23 -15 -35 -15 -12 0 -28 -7 -35 -15 -7 -8 -25 -15 -41 -15 -31 0
-41 -23 -14 -34 8 -3 15 -12 15 -19 0 -8 7 -20 15 -27 12 -10 15 -39 15 -139
1 -69 5 -146 11 -171 5 -25 12 -61 16 -80 4 -21 20 -47 42 -67 35 -32 38 -33
130 -33 66 0 99 4 110 14 9 8 30 17 47 20 26 6 32 4 37 -13 5 -20 13 -21 129
-21 69 0 128 3 132 7 3 4 -8 21 -25 39 l-31 32 4 306 3 306 -22 0 c-13 0 -23
-4 -23 -10z"/>
<path d="M3514 2345 c-10 -8 -28 -15 -40 -15 -25 0 -124 -95 -124 -119 0 -9
-7 -25 -15 -35 -22 -29 -22 -308 0 -326 8 -7 15 -20 15 -30 0 -23 94 -108 129
-117 14 -3 35 -12 46 -19 28 -20 174 -18 199 1 11 8 30 15 43 15 13 0 26 7 29
15 4 8 10 15 15 15 10 0 49 37 49 47 0 3 6 14 13 22 15 18 41 100 34 108 -4 4
-23 -5 -97 -45 -88 -49 -149 -55 -221 -23 -73 33 -93 62 -90 134 l1 27 195 0
195 0 0 45 c0 25 -7 62 -15 82 -8 19 -15 45 -15 58 0 41 -87 144 -121 145 -9
0 -22 7 -29 15 -17 21 -168 21 -196 0z m128 -91 c47 -22 68 -64 68 -135 l0
-59 -105 0 -105 0 0 38 c0 48 31 109 73 144 17 15 33 28 34 28 1 0 17 -7 35
-16z"/>
<path d="M6421 2345 c-18 -8 -43 -15 -56 -15 -12 0 -28 -7 -35 -15 -7 -8 -18
-15 -25 -15 -18 0 -105 -101 -105 -121 0 -9 -7 -22 -15 -29 -12 -10 -15 -37
-15 -120 0 -83 3 -110 15 -120 8 -7 15 -21 15 -31 0 -20 12 -37 62 -87 46 -46
67 -62 80 -62 6 0 19 -6 27 -14 22 -19 185 -34 238 -21 23 6 48 16 55 23 6 6
17 12 24 12 18 0 114 111 114 131 0 9 7 22 15 29 23 19 21 233 -3 281 -29 57
-62 99 -78 99 -8 0 -17 7 -20 15 -4 8 -14 15 -24 15 -10 0 -23 7 -30 15 -7 8
-27 15 -44 15 -17 1 -42 7 -56 15 -32 18 -96 18 -139 0z m129 -160 c22 -30 40
-63 40 -75 0 -11 7 -23 15 -26 8 -4 15 -18 15 -34 0 -15 7 -33 15 -40 8 -7 15
-25 15 -40 0 -15 7 -33 15 -40 9 -7 15 -29 15 -55 0 -35 -6 -48 -37 -78 -50
-51 -98 -51 -159 -1 -25 20 -44 44 -44 55 0 11 -7 22 -15 25 -8 4 -15 18 -15
34 0 15 -7 33 -15 40 -9 7 -15 30 -15 54 0 22 -7 50 -15 60 -25 33 -19 102 11
142 24 31 31 34 80 34 53 0 54 0 94 -55z"/>
<path d="M308 2333 c-10 -2 -18 -8 -18 -12 0 -5 -14 -11 -30 -15 -17 -3 -33
-14 -37 -23 -4 -10 -11 -21 -17 -25 -8 -5 -7 -13 2 -25 7 -10 15 -26 18 -35 4
-11 21 -20 43 -24 20 -3 48 -10 63 -16 29 -11 82 -7 165 12 58 14 113 58 113
90 0 30 -47 70 -81 70 -32 0 -37 -11 -14 -30 24 -20 14 -51 -25 -71 -40 -22
-99 -25 -104 -6 -27 97 -38 119 -56 116 -3 -1 -13 -3 -22 -6z m33 -63 c15 0
10 -50 -6 -56 -8 -4 -31 -3 -51 0 -26 5 -34 12 -32 24 4 20 47 44 66 37 8 -3
18 -5 23 -5z"/>
<path d="M5363 2333 c-12 -2 -27 -11 -33 -19 -7 -8 -22 -14 -34 -14 -12 0 -31
-6 -42 -14 -11 -8 -35 -16 -54 -18 -43 -4 -47 -19 -16 -49 l26 -24 0 -212 0
-211 -31 -26 c-54 -45 -38 -51 137 -50 87 1 159 5 161 10 2 5 -11 24 -28 43
l-30 33 -2 279 c-2 301 1 283 -54 272z"/>
<path d="M7955 2332 c-66 -1 -126 -4 -133 -7 -9 -3 -3 -18 22 -48 40 -48 47
-98 21 -133 -8 -10 -15 -32 -15 -47 0 -16 -5 -38 -12 -50 -6 -12 -14 -35 -18
-52 -4 -23 -12 -31 -33 -33 -26 -3 -27 -1 -27 40 0 24 -7 53 -15 64 -8 10 -15
37 -15 59 0 22 -7 49 -15 59 -21 27 -19 63 5 93 31 39 26 57 -12 49 -18 -4
-81 -9 -140 -13 -92 -5 -108 -8 -108 -22 0 -10 7 -26 15 -37 8 -10 15 -28 15
-40 0 -11 7 -29 15 -40 8 -10 15 -32 15 -49 0 -16 7 -39 15 -49 8 -11 15 -32
15 -47 0 -14 7 -32 15 -39 8 -7 15 -25 15 -40 0 -15 7 -33 15 -40 8 -7 15 -25
15 -39 0 -15 7 -36 15 -47 8 -10 15 -28 15 -40 0 -11 7 -29 15 -40 17 -22 21
-139 5 -149 -6 -4 -16 -21 -24 -39 -7 -17 -27 -47 -44 -66 -29 -31 -35 -34
-97 -34 -64 -1 -67 0 -95 34 -16 19 -30 41 -30 49 0 17 29 40 51 41 20 0 69
62 69 85 0 9 -12 34 -27 56 -27 38 -30 39 -88 38 -71 0 -105 -23 -131 -89 -15
-36 -15 -49 -4 -98 7 -31 19 -64 27 -73 7 -8 13 -20 13 -25 0 -5 23 -24 50
-42 44 -29 62 -34 134 -39 73 -5 90 -3 124 15 66 34 142 120 142 160 0 11 7
25 15 32 8 7 15 23 15 35 0 12 7 28 15 35 8 7 15 22 15 34 0 11 7 30 15 40 8
11 15 29 15 40 0 12 7 30 15 40 8 11 15 32 15 47 0 14 7 32 15 39 8 7 15 22
15 34 0 12 7 31 15 42 8 10 15 27 15 36 0 9 6 29 14 45 7 15 22 46 32 68 22
47 66 108 112 151 25 23 30 33 20 40 -7 5 -67 8 -133 6z"/>
<path d="M8358 2252 c-35 -21 -40 -34 -24 -64 10 -19 10 -26 -1 -36 -18 -17
-16 -51 3 -59 8 -3 26 0 38 7 17 9 29 9 43 2 11 -6 55 -14 99 -17 43 -3 100
-11 126 -17 52 -11 188 -28 253 -31 38 -2 40 -1 40 28 l0 30 -109 3 c-60 1
-112 4 -114 7 -2 2 1 18 7 36 10 30 9 34 -30 69 -46 43 -73 50 -209 55 -76 3
-100 1 -122 -13z m227 -45 c72 -14 101 -29 108 -57 4 -15 -1 -22 -19 -26 -29
-7 -136 2 -217 18 -60 13 -90 38 -65 55 27 17 84 31 108 27 14 -3 52 -11 85
-17z"/>
<path d="M242 2058 c-8 -8 -9 -15 -1 -25 14 -16 43 -17 71 -2 21 11 21 12 3
25 -23 17 -57 18 -73 2z"/>
<path d="M490 2035 c0 -9 -12 -20 -27 -27 -16 -6 -44 -17 -63 -25 -19 -8 -43
-18 -52 -23 -10 -6 -34 -10 -53 -10 -32 0 -35 -2 -35 -30 0 -38 33 -59 58 -37
17 14 39 25 137 67 28 12 59 25 70 30 11 5 35 12 53 15 25 5 32 11 32 31 0 23
-3 24 -60 24 -47 0 -60 -3 -60 -15z"/>
<path d="M8300 2014 c-16 -41 1 -52 81 -53 39 0 78 -5 87 -10 9 -4 39 -11 66
-15 27 -3 55 -11 61 -16 7 -6 44 -12 83 -15 39 -2 92 -11 117 -19 86 -30 131
-15 105 33 -9 17 -21 21 -63 22 -56 1 -114 9 -242 33 -189 36 -221 43 -248 54
-37 16 -36 16 -47 -14z"/>
<path d="M8279 1877 c-15 -34 -5 -64 16 -47 15 12 30 11 135 -10 129 -26 159
-29 194 -18 20 6 38 20 42 30 7 24 -4 58 -21 58 -7 0 -15 -9 -18 -20 -4 -16
-13 -20 -49 -19 -45 0 -115 11 -183 27 -108 26 -103 26 -116 -1z"/>
<path d="M505 1870 c-11 -5 -30 -9 -43 -9 -61 -2 -182 -86 -182 -127 0 -10 15
-30 33 -46 32 -30 33 -30 137 -26 96 4 110 7 167 38 54 29 64 39 69 68 9 47
-20 85 -72 94 -21 4 -50 9 -64 12 -14 3 -34 1 -45 -4z m123 -56 c51 -14 11
-66 -62 -79 -20 -4 -39 -11 -42 -16 -3 -5 -48 -9 -100 -9 -78 0 -96 3 -101 16
-10 28 21 46 157 88 22 7 122 7 148 0z"/>
<path d="M8263 1760 c-30 -12 -38 -46 -19 -75 21 -31 20 -32 -9 -39 -31 -8
-33 -41 -4 -57 15 -8 24 -8 32 0 13 13 54 15 61 2 4 -5 30 -12 59 -16 28 -4
58 -12 65 -18 8 -6 46 -11 85 -11 72 -1 72 -1 75 28 5 38 -15 58 -32 34 -16
-22 -73 -23 -100 -3 -11 8 -36 15 -55 15 -43 0 -96 18 -131 43 -24 18 -25 18
-6 32 11 8 25 15 32 15 25 0 68 -22 90 -45 26 -28 44 -32 44 -10 0 8 -4 15 -9
15 -6 0 -18 13 -27 29 -17 28 -87 72 -115 70 -8 0 -24 -4 -36 -9z"/>
<path d="M8484 1715 c-10 -25 3 -43 37 -50 18 -4 39 -14 47 -21 16 -17 28 -18
38 -3 8 14 -45 69 -67 69 -10 0 -21 5 -24 10 -9 15 -25 12 -31 -5z"/>
<path d="M520 1583 c-30 -2 -69 -10 -87 -18 -17 -8 -39 -15 -50 -15 -10 0 -27
-7 -37 -15 -11 -8 -26 -15 -33 -15 -18 0 -36 -14 -101 -79 l-54 -55 7 -55 c4
-31 11 -60 16 -65 5 -6 9 -22 9 -37 0 -57 24 -77 47 -40 6 10 43 28 85 41 40
12 81 26 90 31 9 5 35 12 58 15 22 4 43 10 45 15 3 4 26 11 50 15 25 3 48 10
50 15 3 4 26 11 50 15 25 3 48 10 51 15 8 14 36 11 54 -6 15 -14 18 -14 30 0
10 12 10 19 -2 37 -8 13 -18 44 -22 71 -4 26 -11 47 -16 47 -5 0 -10 10 -12
22 -2 15 -18 30 -48 45 -44 23 -57 24 -180 16z m176 -72 c35 -16 44 -25 44
-45 0 -35 -33 -66 -69 -66 -17 0 -32 -4 -36 -9 -3 -5 -20 -12 -38 -16 -38 -8
-126 -35 -147 -45 -9 -4 -31 -11 -50 -14 -19 -4 -48 -13 -65 -21 -16 -7 -54
-16 -82 -20 l-53 -7 0 41 c0 33 7 49 35 79 33 37 141 102 169 102 8 0 27 7 42
15 16 8 49 15 74 15 25 0 52 5 60 10 19 13 58 6 116 -19z"/>
<path d="M8197 1522 c-10 -10 -17 -29 -17 -41 0 -19 4 -22 22 -18 22 6 104
-10 123 -23 6 -4 24 -11 42 -15 48 -10 110 -42 117 -60 8 -22 -11 -55 -32 -55
-9 0 -30 7 -45 15 -15 8 -43 17 -63 21 -19 3 -36 10 -39 14 -3 5 -23 11 -45
15 -22 4 -40 10 -40 15 0 4 -14 13 -31 20 -33 14 -49 4 -49 -30 0 -28 15 -37
69 -43 29 -4 58 -11 65 -16 6 -5 28 -12 49 -16 20 -4 40 -11 43 -16 3 -5 13
-9 22 -9 26 -1 64 -37 60 -57 -4 -20 -61 -31 -81 -15 -7 5 -28 13 -47 17 -19
4 -39 11 -45 15 -5 4 -26 11 -45 15 -19 4 -49 18 -67 31 -17 13 -34 24 -37 24
-5 0 -26 -66 -26 -81 0 -3 26 -9 58 -12 32 -4 72 -13 88 -22 16 -8 36 -15 45
-15 9 0 30 -7 45 -15 29 -15 109 -20 138 -9 20 8 21 54 1 80 -20 27 -19 31 15
38 36 7 48 31 30 59 -10 17 -10 22 5 33 10 8 15 23 13 41 -3 25 -7 28 -43 31
-22 2 -54 9 -72 17 -17 8 -40 15 -51 15 -12 0 -23 4 -27 9 -3 5 -20 13 -38 17
-17 3 -43 15 -56 25 -29 23 -34 23 -54 1z"/>
<path d="M4673 1332 c-35 -40 -43 -82 -18 -102 8 -7 15 -18 15 -24 0 -6 18
-18 39 -27 38 -16 41 -16 83 5 55 27 84 79 68 122 -20 52 -38 64 -99 64 -52 0
-58 -3 -88 -38z"/>
<path d="M3490 1312 c-15 -5 -12 -32 4 -32 22 0 84 -61 106 -105 19 -36 20
-59 20 -314 l0 -274 -35 -42 c-43 -53 -94 -65 -202 -49 -69 10 -88 40 -101
164 -20 185 -23 283 -12 380 18 165 22 177 64 220 21 22 36 43 32 47 -3 3
-124 -1 -268 -10 -145 -10 -283 -17 -308 -17 -87 0 -183 -70 -193 -140 -9 -67
3 -118 36 -156 17 -19 36 -34 43 -34 6 0 17 -7 24 -15 9 -11 33 -15 89 -15 68
1 79 3 107 28 17 15 39 47 49 71 18 41 18 45 2 73 -9 16 -17 35 -17 43 0 19
-48 47 -89 51 -26 2 -47 -4 -73 -21 -48 -32 -57 -65 -29 -101 25 -32 27 -50 5
-58 -18 -7 -29 -2 -61 27 -18 16 -23 31 -23 68 0 43 4 51 41 82 71 62 216 63
280 3 69 -65 69 -67 69 -376 0 -234 2 -279 15 -290 8 -7 15 -18 15 -24 0 -15
42 -56 57 -56 6 0 16 -7 23 -15 7 -8 25 -15 40 -15 15 0 45 -7 65 -16 57 -24
226 -8 285 27 8 5 25 13 36 18 12 5 38 30 59 55 l38 46 8 158 c4 86 11 229 15
317 5 118 11 162 20 168 8 4 14 14 14 22 0 7 21 32 47 54 26 22 44 43 41 46
-7 7 -320 13 -338 7z"/>
<path d="M5966 1115 c-11 -8 -27 -15 -37 -15 -9 0 -22 -7 -29 -15 -7 -8 -25
-15 -40 -15 -15 0 -33 -7 -40 -15 -7 -9 -29 -15 -51 -15 -45 0 -48 -8 -16 -47
37 -45 47 -99 47 -259 0 -164 -11 -214 -54 -251 -14 -12 -26 -27 -26 -33 0 -6
54 -10 155 -10 174 0 171 -1 133 71 -20 39 -21 49 -14 225 4 102 11 196 16
209 25 66 85 84 132 38 l28 -27 0 -248 c0 -234 1 -248 19 -258 24 -12 241 -14
241 -1 0 4 -11 25 -25 45 -25 37 -25 39 -25 256 0 189 -2 223 -17 251 -22 39
-44 63 -66 72 -9 3 -17 11 -17 17 0 17 -167 13 -195 -6 -13 -8 -34 -14 -47
-12 -19 2 -22 8 -20 31 3 31 -20 36 -52 12z"/>
<path d="M4827 1090 c-14 -11 -34 -20 -45 -20 -11 0 -25 -7 -32 -15 -7 -8 -25
-15 -40 -15 -28 0 -90 -29 -90 -41 0 -4 11 -17 25 -30 l25 -24 0 -225 c0 -216
-1 -226 -21 -243 -40 -35 -20 -41 137 -39 127 1 149 3 152 16 2 9 -1 16 -7 16
-5 0 -19 20 -32 44 -21 43 -21 51 -17 320 4 252 2 276 -13 276 -9 0 -28 -9
-42 -20z"/>
<path d="M4218 1076 c-20 -11 -52 -31 -71 -43 -40 -24 -47 -22 -47 19 0 28 -2
29 -32 23 -18 -4 -40 -13 -49 -21 -8 -8 -27 -14 -41 -14 -14 0 -31 -7 -38 -15
-7 -8 -24 -15 -39 -15 -14 0 -37 -9 -51 -20 l-25 -19 35 -29 35 -30 0 -204 0
-203 -34 -43 c-19 -23 -32 -44 -29 -47 3 -3 25 -1 49 4 24 6 97 11 162 11 110
0 117 1 117 20 0 11 -4 20 -9 20 -5 0 -18 18 -30 40 -19 36 -21 58 -21 201 0
159 0 161 28 200 24 34 32 39 69 39 39 0 42 -2 63 -45 21 -43 22 -56 19 -256
-5 -244 -18 -222 125 -217 l89 3 -2 234 c-2 181 -6 241 -17 262 -8 16 -14 39
-14 52 0 25 -57 87 -80 87 -8 0 -24 7 -34 15 -27 21 -84 17 -128 -9z"/>
<path d="M5231 1086 c-7 -9 -24 -16 -36 -16 -12 0 -28 -7 -35 -15 -7 -8 -16
-15 -21 -15 -20 0 -109 -92 -109 -113 0 -7 -7 -22 -15 -33 -19 -26 -21 -214
-1 -252 7 -15 21 -43 31 -62 24 -45 91 -110 114 -110 10 0 24 -7 31 -15 7 -8
29 -15 49 -15 20 0 50 -4 66 -9 37 -10 154 6 176 25 8 8 23 14 31 14 20 0 118
93 118 113 0 8 7 20 15 27 8 7 15 21 15 32 0 11 8 42 17 69 15 42 16 54 5 91
-8 24 -17 61 -21 83 -4 22 -14 51 -22 64 -24 41 -93 104 -124 115 -5 1 -26 9
-45 15 -19 7 -78 15 -130 18 -80 5 -98 3 -109 -11z m131 -99 c14 -12 36 -41
48 -64 12 -24 26 -43 31 -43 5 0 9 -11 9 -24 0 -13 7 -29 15 -36 8 -7 15 -27
15 -45 0 -18 7 -38 15 -45 11 -9 15 -33 15 -85 0 -68 -2 -75 -29 -97 -15 -14
-43 -30 -60 -38 -27 -11 -37 -10 -70 5 -36 16 -81 62 -81 83 0 5 -7 15 -15 22
-8 7 -15 22 -15 34 0 12 -6 30 -14 41 -7 11 -16 40 -19 65 -3 25 -11 64 -18
88 -12 37 -11 46 4 71 9 16 17 34 17 40 0 49 103 68 152 28z"/>
<path d="M4519 241 c-7 -20 -24 -37 -53 -50 -38 -19 -61 -21 -231 -21 -104 0
-262 -4 -350 -10 -88 -5 -360 -12 -605 -15 -245 -3 -461 -7 -480 -10 -19 -2
-39 -4 -45 -5 -5 0 -2 -5 7 -11 10 -5 183 -14 400 -20 211 -5 397 -11 413 -13
17 -1 219 -3 451 -4 l421 -2 43 -40 c24 -22 46 -40 48 -40 3 0 20 11 38 25 18
14 37 25 42 25 5 0 15 6 21 13 13 17 243 24 1131 37 344 5 626 9 628 9 1 1 2
8 2 16 0 8 -1 15 -2 16 -2 0 -300 5 -663 10 -363 5 -757 12 -875 15 -215 6
-215 6 -244 33 -15 14 -32 36 -37 49 -13 33 -48 29 -60 -7z"/>
</g>
</svg>
